<svg width="1152" height="450" viewBox="0 0 1152 450" fill="none" xmlns="http://www.w3.org/2000/svg">

<path d="M109.784 345.845C107.064 345.845 104.098 344.938 101.96 342.399C100.756 340.975 98.2431 336.998 100.95 330.962C102.932 326.649 112.568 308.801 117.102 300.434C110.923 289.127 107.802 276.032 107.802 261.396V183.605C107.789 139.36 143.783 103.365 188.028 103.365H265.819C310.064 103.365 346.059 139.36 346.059 183.605V261.396C346.059 305.641 310.064 341.635 265.819 341.635H188.028C171.177 341.635 158.264 337.827 145.739 329.059L144.353 329.628L114.524 344.821C113.993 345.093 113.423 345.301 112.84 345.456C111.908 345.702 110.859 345.845 109.784 345.845ZM146.918 311.495C148.731 311.495 150.531 312.091 151.995 313.257C162.914 321.87 173.029 325.238 188.041 325.238H265.832C301.037 325.238 329.674 296.6 329.674 261.396V183.605C329.674 148.4 301.037 119.763 265.832 119.763H188.041C152.837 119.763 124.199 148.4 124.199 183.605V261.396C124.199 274.711 127.308 286.29 133.421 295.823C135.041 298.336 135.157 301.548 133.719 304.177C131.66 307.959 127.956 314.798 124.433 321.378L137.204 314.876C137.398 314.785 137.592 314.694 137.799 314.604L143.783 312.13C144.794 311.715 145.856 311.508 146.918 311.508" fill="#FFD04D"/>
<path d="M278.513 190.146C276.971 187.97 274.485 186.687 271.816 186.687H192.03L188.054 176.04C186.85 172.841 183.793 170.704 180.373 170.704H166.061C161.528 170.704 157.862 174.383 157.862 178.903C157.862 183.423 161.528 187.102 166.061 187.102H174.687L178.586 197.541L193.196 243.962C194.271 247.382 197.432 249.7 201.019 249.7H255.406C258.89 249.7 261.986 247.498 263.138 244.221L279.536 197.606C280.417 195.093 280.028 192.309 278.5 190.146M249.603 233.302H207.042L197.535 203.085H260.237L249.603 233.302Z" fill="#FFD04D"/>
<path d="M208.804 264.375C208.804 270.812 203.584 276.032 197.147 276.032C190.709 276.032 185.49 270.825 185.49 264.375C185.49 257.925 190.709 252.718 197.147 252.718C203.584 252.718 208.804 257.938 208.804 264.375Z" fill="#FFD04D"/>
<path d="M272.684 264.375C272.684 270.812 267.464 276.032 261.027 276.032C254.59 276.032 249.37 270.825 249.37 264.375C249.37 257.925 254.59 252.718 261.027 252.718C267.464 252.718 272.684 257.938 272.684 264.375Z" fill="#FFD04D"/>
<path d="M437.748 277.055C430.223 277.055 423.397 275.592 417.27 272.638C411.144 269.698 405.885 265.787 401.494 260.917C397.104 256.047 393.71 250.477 391.288 244.208C388.879 237.939 387.674 231.528 387.674 224.961C387.674 218.394 388.957 211.556 391.508 205.287C394.06 199.018 397.583 193.474 402.064 188.643C406.559 183.825 411.882 179.991 418.06 177.141C424.239 174.292 430.935 172.867 438.175 172.867C445.416 172.867 452.371 174.383 458.51 177.426C464.637 180.47 469.869 184.447 474.208 189.368C478.547 194.29 481.928 199.886 484.337 206.155C486.746 212.423 487.951 218.796 487.951 225.259C487.951 232.111 486.694 238.652 484.182 244.869C481.669 251.086 478.198 256.591 473.768 261.37C469.338 266.149 464.028 269.957 457.85 272.794C451.671 275.643 444.975 277.055 437.735 277.055M407.945 224.974C407.945 229.417 408.618 233.704 409.965 237.862C411.312 242.006 413.268 245.672 415.82 248.858C418.371 252.044 421.519 254.596 425.223 256.526C428.94 258.456 433.163 259.427 437.877 259.427C442.592 259.427 446.97 258.443 450.687 256.461C454.404 254.479 457.539 251.85 460.09 248.573C462.642 245.296 464.585 241.605 465.88 237.499C467.175 233.393 467.836 229.222 467.836 224.974C467.836 220.726 467.136 216.244 465.738 212.1C464.339 207.955 462.357 204.289 459.806 201.103C457.241 197.917 454.107 195.391 450.402 193.5C446.685 191.622 442.514 190.677 437.89 190.677C433.266 190.677 428.772 191.661 425.016 193.643C421.26 195.624 418.112 198.228 415.612 201.453C413.1 204.691 411.196 208.356 409.9 212.449C408.592 216.555 407.945 220.726 407.945 224.961" fill="#FFD04D"/>
<path d="M616.852 276.343H597.462V233.795C597.462 227.72 596.426 223.277 594.354 220.48C592.281 217.682 589.406 216.283 585.74 216.283C581.881 216.283 578.267 217.76 574.886 220.7C571.506 223.64 569.097 227.474 567.646 232.202V276.343H548.257V233.795C548.257 227.72 547.22 223.277 545.148 220.48C543.076 217.682 540.2 216.283 536.535 216.283C532.869 216.283 529.178 217.734 525.745 220.622C522.326 223.511 519.891 227.331 518.44 232.059V276.343H499.051V200.52H516.562V214.561C519.36 209.639 523.194 205.857 528.064 203.201C532.934 200.559 538.503 199.225 544.772 199.225C551.041 199.225 556.054 200.766 559.538 203.849C563.009 206.945 565.224 210.753 566.195 215.286C569.278 210.079 573.19 206.09 577.917 203.344C582.645 200.598 588.046 199.225 594.12 199.225C598.744 199.225 602.565 200.093 605.544 201.828C608.536 203.564 610.842 205.831 612.487 208.628C614.132 211.426 615.259 214.612 615.893 218.174C616.515 221.749 616.839 225.363 616.839 229.028V276.343H616.852Z" fill="#FFD04D"/>
<path d="M700.977 276.343H681.587V233.795C681.587 227.72 680.525 223.277 678.401 220.48C676.277 217.682 673.337 216.283 669.567 216.283C667.638 216.283 665.656 216.672 663.635 217.436C661.615 218.213 659.711 219.301 657.923 220.687C656.136 222.086 654.53 223.744 653.079 225.674C651.629 227.603 650.566 229.728 649.893 232.046V276.33H630.503V200.507H648.015V214.548C650.813 209.729 654.867 205.96 660.177 203.266C665.475 200.572 671.458 199.212 678.116 199.212C682.843 199.212 686.703 200.08 689.695 201.815C692.687 203.551 694.993 205.818 696.638 208.615C698.283 211.413 699.409 214.599 700.044 218.161C700.666 221.736 700.99 225.35 700.99 229.015V276.33L700.977 276.343Z" fill="#FFD04D"/>
<path d="M714.667 180.328C714.667 175.017 718.98 170.704 724.291 170.704H724.433C729.744 170.704 734.057 175.017 734.057 180.328C734.057 185.638 729.744 189.951 724.433 189.951H724.291C718.98 189.951 714.667 185.638 714.667 180.328ZM714.667 200.507H734.057V276.33H714.667V200.507Z" fill="#FFD04D"/>
<path d="M745.222 224.249C745.222 217.98 746.348 211.789 748.615 205.649C750.882 199.523 754.185 194.044 758.524 189.226C762.863 184.408 768.173 180.496 774.442 177.504C780.711 174.512 787.847 173.023 795.852 173.023C805.307 173.023 813.48 175.095 820.384 179.24C827.274 183.384 832.416 188.786 835.797 195.443L820.461 206.012C819.114 203.111 817.469 200.676 815.539 198.707C813.61 196.738 811.537 195.158 809.322 194.005C807.094 192.84 804.789 192.011 802.38 191.48C799.971 190.949 797.601 190.677 795.295 190.677C790.282 190.677 785.918 191.687 782.2 193.72C778.483 195.741 775.4 198.383 772.939 201.608C770.478 204.833 768.613 208.512 767.37 212.605C766.114 216.698 765.492 220.778 765.492 224.832C765.492 229.365 766.217 233.73 767.668 237.926C769.118 242.123 771.165 245.814 773.82 249.001C776.475 252.187 779.662 254.738 783.366 256.668C787.083 258.598 791.15 259.557 795.593 259.557C797.911 259.557 800.32 259.272 802.833 258.689C805.346 258.106 807.729 257.199 809.996 255.93C812.262 254.674 814.361 253.068 816.291 251.086C818.22 249.104 819.762 246.721 820.915 243.923L837.273 253.327C835.628 257.186 833.297 260.593 830.253 263.533C827.222 266.473 823.79 268.96 819.982 270.981C816.174 273.001 812.094 274.542 807.755 275.605C803.416 276.667 799.168 277.198 795.023 277.198C787.692 277.198 780.983 275.656 774.908 272.561C768.834 269.478 763.601 265.45 759.21 260.476C754.819 255.503 751.4 249.868 748.939 243.548C746.478 237.227 745.247 230.79 745.247 224.236" fill="#FFD04D"/>
<path d="M914.754 276.343H895.364V233.795C895.364 227.811 894.25 223.407 892.035 220.557C889.821 217.708 886.686 216.283 882.632 216.283C880.896 216.283 879.057 216.672 877.127 217.436C875.197 218.213 873.371 219.301 871.636 220.687C869.9 222.086 868.307 223.744 866.856 225.674C865.406 227.603 864.343 229.728 863.67 232.046V276.33H844.28V170.704H863.67V214.548C866.468 209.626 870.25 205.844 875.029 203.188C879.809 200.546 885.08 199.212 890.87 199.212C895.792 199.212 899.794 200.054 902.876 201.738C905.959 203.422 908.381 205.662 910.117 208.473C911.852 211.271 913.057 214.457 913.73 218.019C914.404 221.594 914.741 225.259 914.741 229.015V276.33L914.754 276.343Z" fill="#FFD04D"/>
<path d="M949.22 277.781C945.554 277.781 942.135 277.172 938.948 275.967C935.762 274.763 933.016 273.079 930.698 270.903C928.379 268.727 926.579 266.201 925.271 263.3C923.976 260.412 923.315 257.225 923.315 253.754C923.315 250.283 924.105 246.876 925.698 243.846C927.291 240.802 929.506 238.224 932.356 236.1C935.205 233.976 938.599 232.318 942.562 231.114C946.513 229.909 950.865 229.3 955.579 229.3C958.96 229.3 962.263 229.585 965.488 230.168C968.713 230.751 971.588 231.567 974.101 232.629V228.29C974.101 223.277 972.676 219.418 969.84 216.711C966.99 214.017 962.768 212.657 957.172 212.657C953.118 212.657 949.168 213.382 945.308 214.833C941.448 216.283 937.498 218.394 933.444 221.192L927.512 208.9C937.252 202.437 947.769 199.212 959.063 199.212C970.358 199.212 978.427 201.893 984.463 207.242C990.486 212.605 993.503 220.337 993.503 230.466V254.052C993.503 256.085 993.866 257.523 994.591 258.391C995.317 259.259 996.495 259.738 998.14 259.842V276.343C994.863 277.016 992.014 277.353 989.605 277.353C985.939 277.353 983.116 276.537 981.134 274.892C979.152 273.247 977.935 271.084 977.443 268.377L977.015 264.181C973.635 268.623 969.542 271.991 964.711 274.309C959.879 276.628 954.724 277.781 949.22 277.781ZM954.711 263.598C957.988 263.598 961.097 263.015 964.05 261.862C966.99 260.709 969.283 259.168 970.928 257.238C973.052 255.593 974.114 253.767 974.114 251.734V243.055C971.795 242.188 969.296 241.488 966.589 240.957C963.882 240.426 961.278 240.167 958.778 240.167C953.753 240.167 949.66 241.307 946.474 243.574C943.287 245.84 941.707 248.716 941.707 252.187C941.707 255.477 942.964 258.197 945.464 260.36C947.976 262.523 951.059 263.611 954.724 263.611" fill="#FFD04D"/>
<path d="M1051.72 272.431C1049.12 273.584 1045.93 274.75 1042.18 275.902C1038.42 277.055 1034.46 277.638 1030.31 277.638C1027.61 277.638 1025.08 277.301 1022.71 276.628C1020.34 275.954 1018.27 274.866 1016.48 273.377C1014.69 271.874 1013.28 269.957 1012.22 267.587C1011.16 265.23 1010.63 262.354 1010.63 258.974V215.415H1000.64V200.507H1010.63V175.911H1030.02V200.507H1045.93V215.415H1030.02V252.459C1030.02 255.153 1030.72 257.07 1032.11 258.171C1033.51 259.285 1035.22 259.829 1037.26 259.829C1039.29 259.829 1041.26 259.492 1043.19 258.818C1045.12 258.145 1046.66 257.562 1047.83 257.083L1051.72 272.418V272.431Z" fill="#FFD04D"/>
</svg>
